<!-- @license lucide-static v1.26.0 - ISC -->
<svg
  class="lucide lucide-message-circle"
  xmlns="http://www.w3.org/2000/svg"
  width="24"
  height="24"
  viewBox="0 0 24 24"
  fill="none"
  stroke="url(#g-message-circle)"
  stroke-width="2"
  stroke-linecap="round"
  stroke-linejoin="round"
>
<defs><linearGradient id="g-message-circle" x1="3" y1="3" x2="21" y2="21" gradientUnits="userSpaceOnUse"><stop offset="0" stop-color="#E8BC5E"/><stop offset="1" stop-color="#A87B1F"/></linearGradient></defs><path d="M2.992 16.342a2 2 0 0 1 .094 1.167l-1.065 3.29a1 1 0 0 0 1.236 1.168l3.413-.998a2 2 0 0 1 1.099.092 10 10 0 1 0-4.777-4.719z" fill="#C9972C" fill-opacity="0.13" stroke="none"/>
  <path d="M2.992 16.342a2 2 0 0 1 .094 1.167l-1.065 3.29a1 1 0 0 0 1.236 1.168l3.413-.998a2 2 0 0 1 1.099.092 10 10 0 1 0-4.777-4.719" />
</svg>
