<!-- @license lucide-static v1.26.0 - ISC -->
<svg
  class="lucide lucide-map"
  xmlns="http://www.w3.org/2000/svg"
  width="24"
  height="24"
  viewBox="0 0 24 24"
  fill="none"
  stroke="url(#g-map)"
  stroke-width="2"
  stroke-linecap="round"
  stroke-linejoin="round"
>
<defs><linearGradient id="g-map" x1="3" y1="3" x2="21" y2="21" gradientUnits="userSpaceOnUse"><stop offset="0" stop-color="#E8BC5E"/><stop offset="1" stop-color="#A87B1F"/></linearGradient></defs><path d="M14.106 5.553a2 2 0 0 0 1.788 0l3.659-1.83A1 1 0 0 1 21 4.619v12.764a1 1 0 0 1-.553.894l-4.553 2.277a2 2 0 0 1-1.788 0l-4.212-2.106a2 2 0 0 0-1.788 0l-3.659 1.83A1 1 0 0 1 3 19.381V6.618a1 1 0 0 1 .553-.894l4.553-2.277a2 2 0 0 1 1.788 0z" fill="#C9972C" fill-opacity="0.12" stroke="none"/>
  <path d="M14.106 5.553a2 2 0 0 0 1.788 0l3.659-1.83A1 1 0 0 1 21 4.619v12.764a1 1 0 0 1-.553.894l-4.553 2.277a2 2 0 0 1-1.788 0l-4.212-2.106a2 2 0 0 0-1.788 0l-3.659 1.83A1 1 0 0 1 3 19.381V6.618a1 1 0 0 1 .553-.894l4.553-2.277a2 2 0 0 1 1.788 0z" />
  <path d="M15 5.764v15" />
  <path d="M9 3.236v15" />
</svg>
